<mxfile host="app.diagrams.net" modified="2023-10-04T20:29:19.241Z" agent="Mozilla/5.0 (Windows NT 10.0; Win64; x64) AppleWebKit/537.36 (KHTML, like Gecko) Chrome/117.0.0.0 Safari/537.36" etag="UznIPe7PA_nsQes0gSxO" version="22.0.2" type="device">
  <diagram id="C5RBs43oDa-KdzZeNtuy" name="Page-1">
    <mxGraphModel dx="1909" dy="971" grid="1" gridSize="10" guides="1" tooltips="1" connect="1" arrows="1" fold="1" page="1" pageScale="1" pageWidth="827" pageHeight="1169" math="0" shadow="0">
      <root>
        <mxCell id="WIyWlLk6GJQsqaUBKTNV-0" />
        <mxCell id="WIyWlLk6GJQsqaUBKTNV-1" parent="WIyWlLk6GJQsqaUBKTNV-0" />
        <mxCell id="oOF_SWQoisUEfiWRyzWI-15" style="edgeStyle=orthogonalEdgeStyle;rounded=0;orthogonalLoop=1;jettySize=auto;html=1;entryX=0.5;entryY=0;entryDx=0;entryDy=0;" edge="1" parent="WIyWlLk6GJQsqaUBKTNV-1" source="oOF_SWQoisUEfiWRyzWI-16" target="oOF_SWQoisUEfiWRyzWI-19">
          <mxGeometry relative="1" as="geometry" />
        </mxCell>
        <mxCell id="oOF_SWQoisUEfiWRyzWI-16" value="Request emission calculation" style="rounded=1;whiteSpace=wrap;html=1;fontSize=12;glass=0;strokeWidth=1;shadow=0;" vertex="1" parent="WIyWlLk6GJQsqaUBKTNV-1">
          <mxGeometry x="256" y="110" width="130" height="50" as="geometry" />
        </mxCell>
        <mxCell id="oOF_SWQoisUEfiWRyzWI-17" style="edgeStyle=orthogonalEdgeStyle;rounded=0;orthogonalLoop=1;jettySize=auto;html=1;exitX=1;exitY=0.5;exitDx=0;exitDy=0;" edge="1" parent="WIyWlLk6GJQsqaUBKTNV-1" source="oOF_SWQoisUEfiWRyzWI-19" target="oOF_SWQoisUEfiWRyzWI-20">
          <mxGeometry relative="1" as="geometry" />
        </mxCell>
        <mxCell id="oOF_SWQoisUEfiWRyzWI-66" value="No" style="edgeLabel;html=1;align=center;verticalAlign=middle;resizable=0;points=[];" vertex="1" connectable="0" parent="oOF_SWQoisUEfiWRyzWI-17">
          <mxGeometry x="-0.2922" y="1" relative="1" as="geometry">
            <mxPoint y="-9" as="offset" />
          </mxGeometry>
        </mxCell>
        <mxCell id="oOF_SWQoisUEfiWRyzWI-41" style="edgeStyle=orthogonalEdgeStyle;rounded=0;orthogonalLoop=1;jettySize=auto;html=1;entryX=0.5;entryY=0;entryDx=0;entryDy=0;" edge="1" parent="WIyWlLk6GJQsqaUBKTNV-1" source="oOF_SWQoisUEfiWRyzWI-19" target="oOF_SWQoisUEfiWRyzWI-33">
          <mxGeometry relative="1" as="geometry" />
        </mxCell>
        <mxCell id="oOF_SWQoisUEfiWRyzWI-67" value="Yes" style="edgeLabel;html=1;align=center;verticalAlign=middle;resizable=0;points=[];" vertex="1" connectable="0" parent="oOF_SWQoisUEfiWRyzWI-41">
          <mxGeometry x="-0.1448" y="1" relative="1" as="geometry">
            <mxPoint x="18" as="offset" />
          </mxGeometry>
        </mxCell>
        <mxCell id="oOF_SWQoisUEfiWRyzWI-19" value="Emission factor and parameters provided?" style="rhombus;whiteSpace=wrap;html=1;shadow=0;fontFamily=Helvetica;fontSize=12;align=center;strokeWidth=1;spacing=6;spacingTop=-4;" vertex="1" parent="WIyWlLk6GJQsqaUBKTNV-1">
          <mxGeometry x="236" y="190" width="170" height="100" as="geometry" />
        </mxCell>
        <mxCell id="oOF_SWQoisUEfiWRyzWI-20" value="Error" style="rounded=1;whiteSpace=wrap;html=1;fontSize=12;glass=0;strokeWidth=1;shadow=0;" vertex="1" parent="WIyWlLk6GJQsqaUBKTNV-1">
          <mxGeometry x="520" y="215" width="130" height="50" as="geometry" />
        </mxCell>
        <mxCell id="oOF_SWQoisUEfiWRyzWI-21" style="edgeStyle=orthogonalEdgeStyle;rounded=0;orthogonalLoop=1;jettySize=auto;html=1;entryX=0.5;entryY=0;entryDx=0;entryDy=0;" edge="1" parent="WIyWlLk6GJQsqaUBKTNV-1" source="oOF_SWQoisUEfiWRyzWI-22" target="oOF_SWQoisUEfiWRyzWI-25">
          <mxGeometry relative="1" as="geometry" />
        </mxCell>
        <mxCell id="oOF_SWQoisUEfiWRyzWI-22" value="Look for emission factor details in DB" style="rounded=1;whiteSpace=wrap;html=1;fontSize=12;glass=0;strokeWidth=1;shadow=0;" vertex="1" parent="WIyWlLk6GJQsqaUBKTNV-1">
          <mxGeometry x="256" y="830" width="130" height="50" as="geometry" />
        </mxCell>
        <mxCell id="oOF_SWQoisUEfiWRyzWI-29" style="edgeStyle=orthogonalEdgeStyle;rounded=0;orthogonalLoop=1;jettySize=auto;html=1;exitX=0.5;exitY=1;exitDx=0;exitDy=0;entryX=0.5;entryY=0;entryDx=0;entryDy=0;" edge="1" parent="WIyWlLk6GJQsqaUBKTNV-1" source="oOF_SWQoisUEfiWRyzWI-25" target="oOF_SWQoisUEfiWRyzWI-27">
          <mxGeometry relative="1" as="geometry" />
        </mxCell>
        <mxCell id="oOF_SWQoisUEfiWRyzWI-59" value="Yes" style="edgeLabel;html=1;align=center;verticalAlign=middle;resizable=0;points=[];" vertex="1" connectable="0" parent="oOF_SWQoisUEfiWRyzWI-29">
          <mxGeometry x="-0.4424" y="-1" relative="1" as="geometry">
            <mxPoint x="20" as="offset" />
          </mxGeometry>
        </mxCell>
        <mxCell id="oOF_SWQoisUEfiWRyzWI-51" style="edgeStyle=orthogonalEdgeStyle;rounded=0;orthogonalLoop=1;jettySize=auto;html=1;exitX=1;exitY=0.5;exitDx=0;exitDy=0;endArrow=classic;endFill=1;" edge="1" parent="WIyWlLk6GJQsqaUBKTNV-1" source="oOF_SWQoisUEfiWRyzWI-25">
          <mxGeometry relative="1" as="geometry">
            <mxPoint x="580" y="980" as="targetPoint" />
          </mxGeometry>
        </mxCell>
        <mxCell id="oOF_SWQoisUEfiWRyzWI-60" value="No" style="edgeLabel;html=1;align=center;verticalAlign=middle;resizable=0;points=[];" vertex="1" connectable="0" parent="oOF_SWQoisUEfiWRyzWI-51">
          <mxGeometry x="-0.3601" y="-1" relative="1" as="geometry">
            <mxPoint x="5" y="-11" as="offset" />
          </mxGeometry>
        </mxCell>
        <mxCell id="oOF_SWQoisUEfiWRyzWI-25" value="Emission factor &lt;br&gt;found?" style="rhombus;whiteSpace=wrap;html=1;shadow=0;fontFamily=Helvetica;fontSize=12;align=center;strokeWidth=1;spacing=6;spacingTop=-4;" vertex="1" parent="WIyWlLk6GJQsqaUBKTNV-1">
          <mxGeometry x="246" y="930" width="150" height="100" as="geometry" />
        </mxCell>
        <mxCell id="oOF_SWQoisUEfiWRyzWI-50" style="edgeStyle=orthogonalEdgeStyle;rounded=0;orthogonalLoop=1;jettySize=auto;html=1;exitX=0.5;exitY=1;exitDx=0;exitDy=0;entryX=0.5;entryY=0;entryDx=0;entryDy=0;" edge="1" parent="WIyWlLk6GJQsqaUBKTNV-1" source="oOF_SWQoisUEfiWRyzWI-27" target="oOF_SWQoisUEfiWRyzWI-47">
          <mxGeometry relative="1" as="geometry" />
        </mxCell>
        <mxCell id="oOF_SWQoisUEfiWRyzWI-27" value="Perform emission calculation" style="rounded=1;whiteSpace=wrap;html=1;fontSize=12;glass=0;strokeWidth=1;shadow=0;" vertex="1" parent="WIyWlLk6GJQsqaUBKTNV-1">
          <mxGeometry x="256" y="1070" width="130" height="50" as="geometry" />
        </mxCell>
        <mxCell id="oOF_SWQoisUEfiWRyzWI-30" value="The emission calculation is basically a conversion of data to KG of CO2" style="text;html=1;strokeColor=default;fillColor=none;align=center;verticalAlign=middle;whiteSpace=wrap;rounded=0;" vertex="1" parent="WIyWlLk6GJQsqaUBKTNV-1">
          <mxGeometry x="827.0999999999999" y="1060" width="135" height="100" as="geometry" />
        </mxCell>
        <mxCell id="oOF_SWQoisUEfiWRyzWI-36" style="edgeStyle=orthogonalEdgeStyle;rounded=0;orthogonalLoop=1;jettySize=auto;html=1;exitX=0.5;exitY=1;exitDx=0;exitDy=0;entryX=0.5;entryY=0;entryDx=0;entryDy=0;" edge="1" parent="WIyWlLk6GJQsqaUBKTNV-1" source="oOF_SWQoisUEfiWRyzWI-33" target="oOF_SWQoisUEfiWRyzWI-35">
          <mxGeometry relative="1" as="geometry" />
        </mxCell>
        <mxCell id="oOF_SWQoisUEfiWRyzWI-65" value="Yes" style="edgeLabel;html=1;align=center;verticalAlign=middle;resizable=0;points=[];" vertex="1" connectable="0" parent="oOF_SWQoisUEfiWRyzWI-36">
          <mxGeometry x="-0.3931" y="1" relative="1" as="geometry">
            <mxPoint x="18" as="offset" />
          </mxGeometry>
        </mxCell>
        <mxCell id="oOF_SWQoisUEfiWRyzWI-42" style="edgeStyle=orthogonalEdgeStyle;rounded=0;orthogonalLoop=1;jettySize=auto;html=1;exitX=1;exitY=0.5;exitDx=0;exitDy=0;entryX=1;entryY=0.5;entryDx=0;entryDy=0;" edge="1" parent="WIyWlLk6GJQsqaUBKTNV-1" source="oOF_SWQoisUEfiWRyzWI-33" target="oOF_SWQoisUEfiWRyzWI-38">
          <mxGeometry relative="1" as="geometry">
            <Array as="points">
              <mxPoint x="496" y="405" />
              <mxPoint x="496" y="690" />
            </Array>
          </mxGeometry>
        </mxCell>
        <mxCell id="oOF_SWQoisUEfiWRyzWI-61" value="No" style="edgeLabel;html=1;align=center;verticalAlign=middle;resizable=0;points=[];" vertex="1" connectable="0" parent="oOF_SWQoisUEfiWRyzWI-42">
          <mxGeometry x="0.7934" y="-1" relative="1" as="geometry">
            <mxPoint y="-15" as="offset" />
          </mxGeometry>
        </mxCell>
        <mxCell id="oOF_SWQoisUEfiWRyzWI-64" value="No" style="edgeLabel;html=1;align=center;verticalAlign=middle;resizable=0;points=[];" vertex="1" connectable="0" parent="oOF_SWQoisUEfiWRyzWI-42">
          <mxGeometry x="-0.8877" y="2" relative="1" as="geometry">
            <mxPoint y="-13" as="offset" />
          </mxGeometry>
        </mxCell>
        <mxCell id="oOF_SWQoisUEfiWRyzWI-33" value="Conversion of parameters &lt;br&gt;units needed?" style="rhombus;whiteSpace=wrap;html=1;shadow=0;fontFamily=Helvetica;fontSize=12;align=center;strokeWidth=1;spacing=6;spacingTop=-4;" vertex="1" parent="WIyWlLk6GJQsqaUBKTNV-1">
          <mxGeometry x="231" y="340" width="180" height="130" as="geometry" />
        </mxCell>
        <mxCell id="oOF_SWQoisUEfiWRyzWI-39" style="edgeStyle=orthogonalEdgeStyle;rounded=0;orthogonalLoop=1;jettySize=auto;html=1;entryX=0.5;entryY=0;entryDx=0;entryDy=0;" edge="1" parent="WIyWlLk6GJQsqaUBKTNV-1" source="oOF_SWQoisUEfiWRyzWI-35" target="oOF_SWQoisUEfiWRyzWI-38">
          <mxGeometry relative="1" as="geometry" />
        </mxCell>
        <mxCell id="oOF_SWQoisUEfiWRyzWI-35" value="Convert parameters units to system units" style="rounded=1;whiteSpace=wrap;html=1;fontSize=12;glass=0;strokeWidth=1;shadow=0;" vertex="1" parent="WIyWlLk6GJQsqaUBKTNV-1">
          <mxGeometry x="256" y="530" width="130" height="50" as="geometry" />
        </mxCell>
        <mxCell id="oOF_SWQoisUEfiWRyzWI-40" style="edgeStyle=orthogonalEdgeStyle;rounded=0;orthogonalLoop=1;jettySize=auto;html=1;entryX=0.5;entryY=0;entryDx=0;entryDy=0;" edge="1" parent="WIyWlLk6GJQsqaUBKTNV-1" source="oOF_SWQoisUEfiWRyzWI-38" target="oOF_SWQoisUEfiWRyzWI-22">
          <mxGeometry relative="1" as="geometry" />
        </mxCell>
        <mxCell id="oOF_SWQoisUEfiWRyzWI-62" value="No" style="edgeLabel;html=1;align=center;verticalAlign=middle;resizable=0;points=[];" vertex="1" connectable="0" parent="oOF_SWQoisUEfiWRyzWI-40">
          <mxGeometry x="-0.0353" y="4" relative="1" as="geometry">
            <mxPoint x="5" as="offset" />
          </mxGeometry>
        </mxCell>
        <mxCell id="oOF_SWQoisUEfiWRyzWI-43" style="edgeStyle=orthogonalEdgeStyle;rounded=0;orthogonalLoop=1;jettySize=auto;html=1;entryX=0;entryY=0.5;entryDx=0;entryDy=0;" edge="1" parent="WIyWlLk6GJQsqaUBKTNV-1" source="oOF_SWQoisUEfiWRyzWI-38" target="oOF_SWQoisUEfiWRyzWI-27">
          <mxGeometry relative="1" as="geometry">
            <Array as="points">
              <mxPoint x="176" y="690" />
              <mxPoint x="176" y="1095" />
            </Array>
          </mxGeometry>
        </mxCell>
        <mxCell id="oOF_SWQoisUEfiWRyzWI-63" value="Yes" style="edgeLabel;html=1;align=center;verticalAlign=middle;resizable=0;points=[];" vertex="1" connectable="0" parent="oOF_SWQoisUEfiWRyzWI-43">
          <mxGeometry x="-0.3651" y="1" relative="1" as="geometry">
            <mxPoint x="-17" y="24" as="offset" />
          </mxGeometry>
        </mxCell>
        <mxCell id="oOF_SWQoisUEfiWRyzWI-38" value="Is custom emission factor?" style="rhombus;whiteSpace=wrap;html=1;shadow=0;fontFamily=Helvetica;fontSize=12;align=center;strokeWidth=1;spacing=6;spacingTop=-4;" vertex="1" parent="WIyWlLk6GJQsqaUBKTNV-1">
          <mxGeometry x="246" y="640" width="150" height="100" as="geometry" />
        </mxCell>
        <mxCell id="oOF_SWQoisUEfiWRyzWI-44" value="" style="shape=image;verticalLabelPosition=bottom;labelBackgroundColor=default;verticalAlign=top;aspect=fixed;imageAspect=0;image=data:image/png,iVBORw0KGgoAAAANSUhEUgAAAPEAAAKCCAYAAAAA4j9PAAAAAXNSR0IArs4c6QAAAARnQU1BAACxjwv8YQUAAAAJcEhZcwAAEnQAABJ0Ad5mH3gAAABhaVRYdFNuaXBNZXRhZGF0YQAAAAAAeyJjbGlwUG9pbnRzIjpbeyJ4IjowLCJ5IjowfSx7IngiOjI0MSwieSI6MH0seyJ4IjoyNDEsInkiOjY0Mn0seyJ4IjowLCJ5Ijo2NDJ9XX3Ip/GKAABXl0lEQVR4Xu29CbhVxZW3X1dQwEQFI5NKBAcENCh0HLAjoib4iS12VLQjjSZA4hcxrSIm/hswKvC17UCiUTt2A/0p0f4UhwhxABNEjAyioKhIUAEDCqJRNCJDQP77rXvWoe6+59yZu0/B732e/Zx79li7dv1qrVV17l5l2xOcECJa9sh9CiEiRSIWInIkYiEiRyIWInIkYiEiRyIWInJKWsRMfq1+b61b/+lfc2uce2Xxm+7yq29wkyY/nFtTPZs2bXbj75zkrhl5k1v55/dyawvDdvZjf44rRQrVi9h9qdM88ZYtf3O/nvg/btnbK9zBB7Vz//K/L3Z7790it7XhWLL0bXfPpP9xLffb1w3/yRC3375f9SKecO9DruexR7nBg87P7Vk1iPHuCfe7NWvWuWGXDnIdv35QbktlEPFd90x27du3cZcNHeiaN2+W21J7nprxnHti+ix31hl93Jl9T8mtLcfKtHzFKjf0kgvcsd275rZUT6F6qSlWf1XRqtV+7urkvC332ye3RpQydbLE769d51atft//vSb5uzrrVle++tWvuL1btHAHHLC/a7bXnrm1olC9bNv2pXvx5cXupvH3uMWvL/XrCrFXsn+rlvvmF77DV7+yd35dy333cXvsUebXi9KnTiJ+9bU33cbEknQ65GDfeOjdd8bvvr5+cHv3bzeMcD9JrGd9LOKuRqF6+dvf/ub+OPcl72Z/+WXxh9Gty+FuzOir8svR3Tr79f90/j/k1139L0PcvvvU3LqLbKm1iDdu3OT+9NYK78Kd8Z3e/vPt5e+6z/76eW4PIURj0jT3WWNWJT09LnSXzoe6zod1dF/vcKB7fclbbvnKP7se3bu5v36+wf3yrv/rPvrLx+7Swd/zPb8x98VF7v4Hp7pjv9HVXTLwPPfq62+6mbPmePd869Zt7itfaeFOO6WX+3afk1yTJk1qHJ++t+YD92QSey57e6XvZJo2bZJc9wh34Xn9kk6mYly3LbnO9D88756Z+YLbvHmLa9vma27AP57pjkzupyrWfvChe/i3T/sOC+8Dt7NfEuse/3fHNJjrGd7vBd/t56Y89pRb8e6q5H6aum/1+qY756zTC9bL0mXLK8S59nehWLw6uLf/nvyweyXxttLHf/jRx+72u+/1LvgVl33fPfL4027hK2+4IZcMSDyBre6xaTPcX/+6wcfS/c/6tjuuZ3dXlquabdu2uVnPv+ienT3XD8hxjm5HHu7OPecMt38SgwPP8bGpM3wdW3s475z/ldRxd79dFKZWlhiX+aWFr/kH1v3oLv5B8MnY2MsLX/cNYJ8kXut+9JH+71df2xGb8Z1YrUmTPdwJxx3rNnzxhZv6xO/d1uTh/t2xR/uBKs7/u6eedc/PeSl3VM2Y/vvnk05klet65GHuhG8e4w74Wit/rd/8v8f9IJyBkzn1yT8kjWm+69r5MPe1/Vsm4vzITfrNw/74YrDtF3f9t/vz6jX+fr/Z42h/Ljqk2S+8WL5TA/KXv6x3v574gK/fI484NGnQW5PGP69ovSACykTdwxFJ50o9HHRgO/+9NvB8vnHUkYn4ytyby96pMEKPuNZ/+pk7/NBDKrjbc+Yt9B1Op0M6uAOTjuXTzz53Dzw01b38yut+OwJ+4KFp7re/eybp/PbzZTus09fd4jeWurv/6zfei3vv/Q/cnb+e7AdLrfx0wB9/vN6fQxSnViKmsnmQuNA8SOCT71iHjz8pr/Cju3b2DfDdVe+5L77Y6Nex7c+r3k8Etr/reMhBrnmzvdwPv3+h+/+u/rEb9L1/9CPNF57bz3cIry9Z5juKmoL1vuFfr/Dn4FzDfvjPfuR21XtrEo/gk9xe5SPCe+/d3O+L9Rj9s2G+sWzYsNHN/uOLBeN6jqHxNW/WzP30yh/6a1wy8Fx36Q/+yZ9r3oJX8vfYUHy+YYO3ZMN+9M9+Oees71RZL3hDxLStW+/vv5/yreN9PdCZ1oUuSWfY+oD9/Wj+2nUf+XXWCfNcqTOzsID3dd3PLnc/+kH588RDYX86OOqPMZOXFr3mzkzCL0bTKdtlyTM68bgevhN94823vJXnPMcc3dVvY59rh/9v962Tvpm7iihGrUSMy0xl02j2b9XSr+OT7/TQCBw6HNzedfz6we6DpAGsTnpYYBs9NA0Li4FrvE/Sm8+Y+XzSG9/vRt4w3t37wKN+3y1/+5vvvWvKge3a+AZ27/2Puhv+7VduzM13+fLgOnMuAytz8knH+YZY/r2J9wr23LOp+3j9p4l7XXleeF1yv2vXfuj+kliE6//PHX6OmoVRYMS/IRHwllp0OGkok5XHaJ/cz9Fdj8h9c+7Qjh18fdW2XuoKnfIx3+jiBy/fWf5nv45nueLd1f658nxDTkzqcJ99yr0AxI1XsG/y/ZP1n7lNScjyeiJSRP3kjOfcT0aU1x+fc+Yv9MesT/ajTVAPbyx9K7HqT/r6Jkxh1FxUTY1FzEPAZcYivPbGMnfFT8f4h8En3+HlRa97S8HDOCpphPyN9bBenBgH1xlwUf/ttv/wc6mbt2xxxyVxT++/P95vqw3EwHQC9z7wmPcGDj/sEB/Lca00e+25Z6X5bMraNBFzMb788kt/z1imgRf0d99PrHC4EE/v3aJ5bu/CIIY0GP3tX24vWqY99tjxaMqSxtzYEz48J+oQK0lIgpv7+edf+Oea7nTwekL2TO5pj6BOrePpc/IJleqP5ZhvdHWHJu413kSzxEOb/cIC32He9quJFTwpUZgaixh3GJHQOxKr2JwiC99Zj/tKjw1YXBu5Xp2sx5U+qH0716b117yon5n5R2/Jzk9EcNWwH7h//Idv51302sAADNdgAG3UTy/zQvu7Ht9IGtpeuT12QPwdxsjwSWKBsRZ7lO3h48BisK1b0oC/2fMbFRbuM92ojZZJ3cDKP6+uEFvCX5LGue6jv/hjv7ITfihTX/AGjji0o3tvzVo/4ERnjFgLuehp7wAvaFPSue6R1FlYp8TD6fpjIY5mNwawxl13tRt++WB35BGd3IqVq919//NYpboTFamxiBEKD6fz4Z3c9f/6LxXmGm8cdaXvoREl00+Am81Ax4cf/sW9MG9hEk9v8LEUjZY5TdxQaJEbcaYhvPbGn/zftQFXDLBoe+xR3vtT1r8WmPLCM5ifxLDW6LDizz1PLLzddep4sLcCaRj82jfppAgjcP/CuJlGRsdWjA4HtffWjP1mPjc3P3+LZWYwjvqijiw0aSgawuW2Aa4vvtjk73v1+2t9R8mYRhoG3KhL4NrPJ5aUe+T+cYcJB4B57NCy0qEueHmxnyUgNuY7xuDQTh3c9wac7Ue5zSUXxWlyfULu7yp5/He/9w8Al4iRxRAqHoEgwi1/2+KnmsrFutUtfHWJP45e+B/OPM0PaDFlsmr1GvduYp2ZFsKCz5o93727+n3/IPnZH9MTn2/4wj9k4i2+cxwPe+Grb3hL0eOYbkmj+dJ/ZwpoReKiL0quN3/BIn/tJolLenzScdCQFix8zZ+P6Y0X5r3sY73HfveMPw7v4ILvnulaJG4x28NrYiW/khz/+pI/uWVJB/XKa0vcynffc394bo57+pnnXNcjD3ft2rbO1URFiPmx/m+9s9IvHEODf2rGLPf+mnU+Dhxw7pl+dBnS1+Z+C60vVC9NmjRNyrfcT9dRp8Sv7FfVT0xh0eIlbk0S8zM7kL4Pys8z/dOy5V6cZ37nFD8lZ9ixWFs66neTDu2pZ2b7jpzOC/cYT61tmwN8R8YPURgIpON7NQmvHpk63X308SfJPXzDTz8yJoLHhtX//awXknazPjEaHX3MHYYXoiI1rhmE9tWv7u0tcSFwhXG3eFBMF4CNctJLp6clzk4EjQi3JPEw8fJBB7Vz55z17dzWmsMUDMchQOZLP/vsr27Q977rG2AaYt8Lzuvn3TfmqCkXU0aXXzrIdxzFID5kzrt9u9Ze9PNfetV99NEnPoavan4ZF/GM0092F3/vHxOBHOCnivBmiBlxHa+58of+V28NAdeiHvAouK8lS99y25J4vj7YABcwXXX4oRU7b+Os/3Wq/+UXoqZ+mH34lx9f4g7pcKDfzrO5dMj3/Egzgud5s3wt8UDOOuPUxANqlhxzsO8wX0nOQf3iAZza+0R38UXn+gFIURy9KE8UhZbB9NofZs1x3z27rzu9T6/clnL4TzJ+7FHbf+AQDYt8FFGUdR/+xf+4Bw8q/OWdKC0kYlGJ5/74op+2u+X2//I/8Dnl5ON9KCFKE4lYVIJfoPE/ywxC8supvqednNsiShHFxEJEjiyxEJEjEQsRORKxEJEjEQsRORKxEJEjEQsRORKxEJEjEQsRORKxEJEjEQsRORKxEJEjEQsRORKxEJEjEQsRORKxEJEjEQsRORKxEJEjEQsROSUjYl5/Sm4nMugJIWpOSYiYDAdkHiRbANkchBA1pyREvPLd1a55i2Y+GwDpRxC1EKJmZC5iMt7NnD3XZ+4n7QsgaiFEzcj8lbUk15p470NuyCUX+ORfxMbkK7ps6ECfWNtgPfQ85ig3Idmf3ElX/2SIz5zHOe66Z3I+DzBZ9cLj6SjunnC/W75ilf8O6X2EiJXMRUyS8TeXvZMXFANb9z/4uBt26aAKGf0QMVkPSSdC2kuD/RG15QMywUJ4zjVr17kz+57i1+Ouk8CaZGaDB53v1wkRK5m60wgOAeNKm0UkO17zFs3dm0vf9t8rUFaWCLFP7ssOV5y0nJbQi/Oc2/8Mt2bNOp8lEdhmAgas90nH9/AWn3MIETOZihiRIbauQbIuBIaFRNxpgTF6TWoRY+26j9wnn3zqTjulYrY+UqzSEWB9Q2wai+WJ6bOUwFrsEmTqTiMqUmMWI0yZaTFx6P6aK12Ms87o4y0wLjuixWLb8ayb8+KifFwtRKxkJmKLS3FrQ1cXCsWshUScHhQrhA16DbzwnAo5dCVisauQmTvNNNKmjZsquNKGxazVzRnjNhMnF4yfq8BicSF2BTIRsQ1ItW/fxrVrc0BubUUQNyKvas7YxI6rHP5ck/M/Nm2G/7T4OPwl2LOz51WYbhIiZjIRMQNSfkArGJVOg7gROWJPD3CF4IoTOxMb26DViJE3Ja54B39uhD7k4gHeWtt2IF4WYldA+YmFiJxMp5iEEPVHIhYiciRiISJHIhYiciRiISJHIhYiciRiISJHIhYiciRiISJHIhYiciRiISJHIhYiciRiISJHIhYiciRiISJHIhYiciRiISJHIhYiciRiISJHIhYiciRiISJHIhYickrmlbWWlynMv5QFvOM6ncsYGrNcxcoQYvmVeRG+0tHs3pSEiEnVcvd//sZt3LTJderYIbOcwZagLUy8BpbPiZfZZ5GYvFg+KVBOKVES7jSpWpq3aObOOuPUavMv7SwQCsnNyQyR7kRI1jbyp8N8KtQHpkzLrS0NyIAxZtSVEvBuTOYixnUkVQspXboceZhfV1X+pZ3FzOfKc0Od2vvE3JqKIJLz+p/h08EgeCFKhczdaQQRpiclNiaDf9pttdSmPY85yru8rVrtl3chzd3cmMvZZPGiHV8oxgz3qSrNaki435oPPixYzkKur+VHNixvslHVvUGhcxppd9rqk32fnDErf88WIoRlaZGUe9ilgyqlhbXxCSPrcQpRNU2uT8j9nQlz5y9yn3/xhTv15BNd06ZNXVlZmZszb6Hr1vWIpFHum9vLuUWLl7gVK1eRydT97KofudMSi4l4iGPvTBr49wee5wZffL477ZRebsHC1/zSo3s3f87Xl7zlmjdr5q647BLXLxHQSSf+XWL957nV7611PY7p5hO8zU2uyfp2bVvnrliY15csc1u3bvOCK1RO7mdNcr5+ffv48iGI15JjRiXu+Ln9+/r9H3rkCbdt2zZ3xGEd/THF7s2g81jw8mLX/egulcr39jvvulXJfZx0Qs98hzR3/kK36NU33CUDz3UXXXC2O7B9Wy9crsNFRl5zma+H1e+v9fXAvXAsnd0dv77Pbdq82e/T/6zT/bF0LHxWVzciGzJ1p2k05AkOsyN2PORgn4q0YM7hpAGemYjDMFccK2OWgvOcm7i9ZF1cumy5X8e20PJhsbCmWFLOURcKldPuh3ObVWQ7brhZVaweHQ3Ws0Lsn7q3+sI1zMJ26Xyo9zw2bd7i68ZgnzB9LPVFvbGPPQ/qjvqtLjulyI5MRWyNJkw0TmPvlAgEMaQbTauW+yYWda/ct/IUqZ988qlvjCGWk3jN2nW5NeVgFS29KZaJgSoadm1pn1gk6whCMVp57H4QMHE2Igpp366NFw+diJG+t/qAAMM65Tt1Ut01yOHMcWn3mvuta12JnU+mIqbREMfeevuEvLhYiMeI5cySGl6cOQsB65OGReNKHz/qxvFeTAZxIOvhztt+7pcwP3Ex0aehEXM9RAjpROgMjhHPWuJ04mbug3zJYflwT9Ok762xocOkU6Huw7KyhPG8KD0yEzHWi+kkxGTCsmXsdcO9GMLs/oVomVgWrMuIK4ZWOgcLLjQuLeJicKbY/HNV1j/ExIorDZYInXLa/ZzWu1dejFgw3Nhbx11bqWy3JOvSFi9LzFrjOqfLyqJprNIlMxEjCKxY6PYZ5qpWN2dMoyOWLBg/V4HFriG45Lj2/AKqEJTjkanT8/Eu0PARLeV8hUGjBBM4YLE5J252DNDpZDVPL+pOJiJGRAyUYMXM9UyTdlULYWLH3WOU2uD8j02b4T/NVQ6tOkJN/6QRq8i0DOeyKR8Daz7u5ru8tU5PQZloH/7t0xUEDsTC3OPE+6ZUEAbnm/X8/Ny30qHXCT3956TJUyp4JNRtWL+itMhExFgmP6AVjEqnMVe1ulFRRIWrTJxpMRwxaKdDOuRcxH3ckIsHeGtt2yGMiQ1GYnF9iQ1tXxbmaJlPLeSOc37EzZxr2qvg+sMvH+y3E6fb+RD1sd275fYqHbiXkSN+7P8O43ieQXpwTpQOJfMPEEKIupHp6LQQov5IxEJEjkQsRORIxEJEjkQsRORIxEJEjkQsRORIxEJEjkQsRORIxEJEjkQsRORIxEJEjkQsRORIxEJEjkQsRORIxEJEjkQsRORIxEJEjkQsRORIxEJEjkQsRORIxEJETkm8spb3SqfzBwMpUNL5f7OGF78XyxXcGPASenIkh7mmiuUZ3pkUe2ZQ7LnxUv5COZ1F/chcxJb0mpe5h9kVaKyPTp3uLhpw9k554FyXVC61bVBZirhYXZGdgZfnWyLxxsBETIaN9DUtSXm6nLUVcV2f0e5Gpu40jY9kZyRES6dHIRsBjaPUHh7WjmRojS1g6goBk+0iXVeUhTokywUNP2t4bpQznV6H9WTEkCAblsxEbAnKwmTYojBYvXQy9TTUIXVZKXl5Rlhi8+oyW4r6k5k7TQ+NiK/+yRBvdWuCuZMG6U/D4y1eJDM/uYZt3zBmNHeYvMhGuN1c0xCsiokn7U7X5Joh6XsIXc7wXDR+XFKEizhr4sKHZStPt1rZdS0UDpj7a4T3W6xMhDnF3GmDe6VTsWeUdqcLxdXUBzmt6vuMJibbhyTr8PTs3tLtxaiuXVVVP6VAk+sTcn83Kk8mFVdW5lyv43u4pk2b5tYWhod9x6/vc2+9864b9dNh7tz+fV2/5GGTMfHRx6e7zkd08o2JJOBzk0YzZ95C1/nwju6Kyy7x+61+f21iyea5nscc5dq1PcD1Pf1bybXL3LYvt7mR11zm9/HHJ9eZMfOPbtiPBuWvwX5Tn/h9/ho06gUvL3bdj+6SnKt1ja5pIqIxvLZkWf4eunU9wj30yBNu27Zt7ojDOubPtWLlKnfK3x/vBl98vutxTLfkPt9zr73xJ9f7W8f7MhSnzC1Y+JprlezT+fBOvkxcIzxm7vxFbs26j1y/vuUJ5ajXTZs3+3rof9bp7sD2bb1A+AzvL12mrVu3+Wtxb3wvxIYNG92ipPFTV5Rh0eIl/lrH9ezuj7dOwJ4BZd2w4QsvkPo+o7nzF7rZLyxIOoVTfZnpCF9P6p4y9OjeLd/meCY8zyuH/cBddMHZ/nyfJseTBA+qq59SIIoppqXLlvsM/eleFGvgMycmvW0IliKMG3mA1aVJBRokViW8Buk+SY26Prl+VVR3TawDMSsWzc5fzAUmr3F9e3pSrlLuMHczAmCgyFKwUq9kpzw3KZN1NFyXe0lno2yIMoXQOfBM6eQM6qPPySfkvhWmNs8Iq25l5jhySYf5orHo1E/aY/ru2d+pdf1kSRQixo2jZwwfHFCxpEdNJ8YOGwbQO/OQcXdrAoK7Jpfak5SkTOdUd2x116Sx0OGkU4QiDsSOm2mQ7Ls+cE7qCrGGHQSNl3uxFKzUK3+nXX6uj8AQmlHfMqVp3mwv16rlvu7+Bx/39V1bqntGvm2kUs22TK4HJnbuv6oc2bWpnyzJTMQ1rQh6u7CB70xo7KPH/tLHY/TOd972czf2uuE+Rqovaz740Md+Yd5flnRsB4gwJN34iuHrafv2/P40wNAbwGPhXmi0Vq/EemF5WML40EiXqSYgqmIiQWSMVFPGW2+f4K9bk5H1hnpGdv++s81Z2ZDa1k+WZCbidAMrBhVMRTcGzEtjHcaMvqpS71tf6LQYrSWJOQ0vXJiyqup6lnAdy1AVWHsTKYTH0fjxWHApqVOrV1zDdHlYxoy60lvzuoIIcN2rSiQPuMZcz6akiFGroqGeUXXtamfXT0OSmYh5AAiZEerQFS4EAki7zGANpZCr3VDQyYS/jqorWLIwHqsNNCjEh1UI511DcC+xtCZSsOOou1cWL/HriJWNYvXaEDwwZZr3tIhXawKxJjEs1o/nWhvq+oyqu/+dWT8NSaYxMQNT9Krjbr6rUlzE97v/637/QE/tfaLfj6mOsEKtoTDwUFsKiYqHFq7jWnQyDQGxMFZx4n1TKtwD9znr+fm5b8WxRo77nXY7ETYuKYNk6cEnE+3Dv306P6BlmMAmTZ5SQTicr1hnUR3cG+4ujb/QdI7Bfo9Neyb3bUeHHLq3O/sZFWtXlIvvO6N+dgZVz+3sZHhYxEXWCNPQaO2Bsh+uFoMYBu7pyBE/zu9TG0xUXNfmIBldJna1suCaDr14gJuQCK++2L2m74Fr0NhrAuWjYdHo0vOaxIWFBMM6PBVCFzyfELZRf0z1EKsb1CtzuTUB7yCcQ4WazqPi5v9h1pzct/IR/nDOeWc/o2LPhHJYXda3fhqDkvgHCCFE3YliikkIURyJWIjIkYiFiByJWIjIkYiFiByJWIjIkYiFiByJWIjIkYiFiByJWIjIkYiFiByJWIjIkYiFiByJWIjIkYiFiByJWIjIkYiFiByJWIjIkYiFiByJWIjIkYiFiByJWIjIkYiFiJzM3jvNG/XTCaYNezl3XV4KL8TuRuYiJm1HOtM8b+QnqwAZIMKcvzWBtCiWJb6hk6IJUYqUpDuNqC1LXinlvBGiFCnZmJg8PLjV1aXzFGJ3pyTdaYPsf2S6t+x6ZKojmViYxtKScBWLsc0lx6KnE3rXNPGXECUNIs6CjRs3bU8EuX3ifVNyayqz6NUl20f8679tX/Huav/9yemz/DqD9WxnvcG6UTeOzx8DXIvrfLL+s9ya8nOF5xYiVqKaYsKihpbTEpWT6rIqGOXGWoepP0kR2rxFc7d+/We5NULESXTzxLjN4++c5C6/+ga/MIpd0+zyjFxfM/Imfxz5aHHL16xdl9sqRJyUtIgRGEmm27U5wH9n6olkz107H+buvO3nfiEmrg5iabLX33XPZJ+omuNIyk2CaiFip2RFjGV9c9k7XrC4wwxMvbn0bTfiiqG1njt+dOp016rlvm7M6Ks0dyx2OUpWxA9MmeY+SeJVYtdiYGFXvLs69612rEyOC0e5hYiVkhOxub6I06aWoGViSQFrbGBh00JkysqVlVXYr33b1m7NmnVu7bqP/Heu8UhyrBC7AiX52+li87fpuV7248cgDGyFv7Vmfplfe4HNE9tPOYFYeOjFA9yE+6a4k47vUWv3XIhSIjMRCyEahuimmIQQFZGIhYgciViIyJGIhYgciViIyJGIhYgciViIyJGIhYgciViIyJGIhYgciViIyJGIhYgciViIyJGIhYgciViIyJGIhYgciViIyJGIhYgciViIyJGIhYgciViIyJGIhYiczF5Z+8Wm7e6HN33qHpixMbdmBxf1beH+69r93N7Ny3JrGpfnFm1xfYb9JfetnMYuU6EypJl119fcUZ2aun+45mP3o3P2doP/Ye/cFrE7kbkl/tk/f9Vtn9O+wtKhTRP3ldPWukm/+yK3V815c+VWd8LQj/xnbaFjGXj9enfJmPVuyQOtC5YJcTUGp/TYq8L1qSc6kg0z2+XXsY8QJelO33TZPt7KDPk/nzaaaODGSZ+7d97b6l6adIDr2rFpbm05lGniv+7nBV6XDmJncUDLPdy8/zpAVng3pmRj4uO67uktz1Nzq8873BAgzP/3+43u3y/b1wujEP/07Rbu77vv5e59snIIIERWlKyIiT1P/+Zebtaize6j9V/6dXye+MOPXNlJa/LLtXf/1W8zV7jbRR+6F5f8zX+y3VxyLHp4HEto5ee+vsW1+9oePsYsRlimVR9s89ez64dw3o7nrstb7HS5+dvuCSwEeGnp3/w52aemoYSdO9yfMrGE92zlSZelUPnZj/1tH8pE/YrSpGRFDIcd1NSt/cuX7sNcg5/6x03eUlpMSNyK9aQBI7D7r2/p1x3fbc98TIubSQPEon/4ZNv8sWnXeNmft/nrVTdwZWX6fOP2Sp2MwbWw2Ie0a+LP/83BH/mBJ7t2nx7N/GBU+rjR//lXN+r75WME9XWP//03n/tycC7iaMrz/bHr3VkjPnb/PbKlXx/Wn4Hw6QDvHV2+D8cCg5AScmlS0iJOQ8MOB3OIW3FxEWBVIExi2tBN7v+t5t7yrvukopBqQ6+j9/KCfmPFjhgZYSJsRMt1cb0REOU0Rlz0Ff9Jp2R88PGXbsBpzSvF4nXlhKP2zF+HclAePJRL/3Hv/DWs/v7w0hYvUJb/fPwLP4hm9cyxdCwvLN7iFrz5N79OlBZRiRhoaOZysmBxVq3bViMrEbqJrft94Oa/8Tc/kFVbEH/rpEMwEdDw7fomaNzytKAN/saipzsf1jUUWPuw02rTag/vGVR1jXfXbnNvr97qLum3o8MB7pV7rktdiZ1PSYuYRmNuKRC/Mc2DG4urx4LVqA6LA88c/rF7avz+/jhca6yV0fnrTfz1qusM2Cd0u8/s1cxbKQRglswERBiApWa+1zodFu4hPT/edv89vNCyBK8kHE+wxTo8UZqUrIgRBG4egkUwxGrEb8RxtY0Xb31ggxcexxZzVwu5xmnSZQIsLlaKgbG0JTMLxnSZdTrhgotfStCJhOMJ6UXTWKVJyYrY5myJXYth7mpdQKyhdTHX+Gd3f1ZpwMmgE0mXCYuLu4y4n1mw2R1+cNO852Buc2NNk9UXOp2ypG+iQxLxUHIiNtcXcf7ulv3zcZ25mmEDw8Km3bxCDRFX2Vxe4BqINc11g7/qRcdoso1aG7jydCyM7IaxJmDFOf8Vv/isQvzLJ9+J29NTRr+asqFoZ5EV1iGlf2SDB3JHUt7qQg2RDZmLmAaejr+YRuJXSKFYsJRMe9DAbF/i0XRMHDZE9kE8uIFYWYv1mN75v6NaVoiJAdExTcV10nEhrHy0TUF3HMtL7M750vPMjPLintIBhOf7SouySp1BKUBd4f6HcTwx/DGH75nvnERpkdk/QAghGobSMwVCiFohEQsRORKxEJEjEQsRORKxEJEjEQsRORKxEJEjEQsRORKxEJEjEQsRORKxEJEjEQsRORKxEJEjEQsRORKxEJEjEQsRORKxEJEjEQsRORKxEJEjEQsRORKxEJEjEQsROZm9snbTps3u7gn3u+UrVuXW7ODQTh3cZUMHuubNm+XWlDNp8sNu/aefFdwmxO5K5pa457FHuTtv+3mFpeV++7oRI29yT814LrdX3eD48XdO8h2GELsqJelODx50vht6yQXuiemz3CuL38ytLV8//PLBssJCBJRsTNyl86HerV746hu5NUKIQmQeE+M6Y2ELgTs858VF7uqfDEn226dSTFworj7rjD6ua5fD3V33THYbAze6RbL/sEsHuY5fP8ifFytvhNtg5Z/fcxPvfcgNSbyBmc/NdQtfKe9IWrXaL1+WkPT50vtRbjsH4GUc271r7psQ9aPJ9Qm5vxuVrVu3uQULX/Ni7HFMt9zaimzYsNEtShp/96O7eLEvWrzEbdq82R3Xs7s/3jqBkddc5vol4u3W9YjkmC+8QPqe/i1XVlbmtn25Lb+dfdd/+tfkuou9yPqfdbpfv/r9tW7m7Hmu5zFH+fKwz9z5C93sFxYkncKpbvDF57vTTunlXl+yzJehR/durmnT8sRpCHTBy4vdlcN+4C664Gx/vk+T4zsdcrDffsev7/Nlpgxc78D2bd2EpIPgs13b1n4fIepDtFNMmzZvcZ+s/8wLz8CS9jn5hNy3wmAdsfxhXI1AXeKQYOVDsOpmMdn/tN693Jo169zadR/5dcTrby59u4IVh++e/R1/naXLlvv9z+1/Rv56nI/BvJmz52rATTQI0Yq4ebO9XKuW+7r7H3zcu7+1BQFefvUNfrn19gm+Q1ifLAaiwy0PaZlcD2w/4vX27du4dm0O8N/TsJ1zhAKH9okF5np0RELUl5IW8Zq164qKBJExUo1IECFirMmUFIK/ZuRN7pGp093Y64b7Ka0RVwz1cXFtwIpiuXHRQ6tu2HZiYessbAnjZyHqS8mKGBG8uewd17XzYQVFYuAaI0SbkiJGLQbnfDQRL8IfM+pK7/LWFcqEgIth2wvNg7PU9/pCGCUr4gemTPMuZ68TeubWVA2xJjEs1q+2sSZxbTiSXVNwi1e8u9oPhBWiuu1CNAQlJ2Ia/Oixv/SNv9B0jsF+j017Jvdth+UO3dv27dpUGIgy6xgKC/eaaaS6cGrvE31cftuvJlYQKuXiu3VAkyZPqdCxEI+HP2IRoj6U5G+ni82jhvPEDAohnk8++TS3tfwnnOGcc3gNmwsmvg6vyw9K+vXt4+eFB154jr9uOE8cDkqxnvln289IzwOH5Sh0n8V+Gy5EXchMxEKIhiHaKSYhRDkSsRCRIxELETkSsRCRIxELETkSsRCRIxELETkSsRCRIxELETkSsRCRIxELETkSsRCRIxELETkSsRCRIxELETkSsRCRIxELETkSsRCRIxELETkSsRCRIxELETkSsRCRU5LvnS72XubwvdO74jubeaE8aU9DGvsd1YXKkIb3gnc85GD/3u+Tju/hzux7Sm6LyIKSTDJuL2MnLUvYQGorYhKskRWi1EVvdUG2inSaVKuLrBKTF6tzMlxIxKVBSbrTiNoSpIXpTlhPJsRdzQpb3qmRPx1WKQ0q90xnVtcUrjsL0uuQFE4Czp6SjYm7dD7Uu5Lk+N2VQZgkdDuv/xlF806R84kUr3XNGSV2bUrSnTZwh+e8uCifWC3t2hWKq7FapC4lZ1KY6dByMWHpOG+YIzjcBmEuJoRjeZZatdqvYJK39PnS+5lLbISucfoei2H7XXjuWe7e+x+plA8K0vVjLq/lq0qXy+6Tcz05Y5avx5qGMIXcafaFnscclY+rrW55zmFZ0nmzwHJd2XNTzqqa0eT6hNzfjcrWrdvcgoWv+QfU45huubUV2bBho1uUNP7uR3fxjWDR4iVu0+bN7rie3f3x1gmMvOYy1y9pfN26HpEc84Vv3H1P/5YrKytz277clt/OvjS+BQsX+8bc/6zT/frV7691M2fP843PGv/c+Qvd7BcWJI36VDf44vPdaaf0cq8vWebL0KN7N9e0aVNfRhrugpcXuyuH/cBddMHZ/nyfJsd3OuRgv/2OX9/ny0wZuN6B7dv6Bs5nu7at3fNzXkrK6VyvRAx2zkJYXRz/ze5uzQcfevc7rDfK/GQi9J5J2boeeZgXxG13THC9//44d8Vll/hyrXx3dfk+wX0uSjydt95Z6S487yxf/iMO65g7YzlhnYflI6Hd3KRT6XBQ+/wx7Os7q+R+uF/qbOlby92ceQt9fdIpcg2e05NJp7dt27b8sYRNdyYC/v7A8/L1TftgCetbVCbaKSYaEQ2ZBmlgSfucfELuW2GwQliAsHenwbjEIcHihGCVzNqx/2m9e1VIlUrDwxVOD0Z99+zv+OssXbbc739u4irb9TgfVmjm7Lnek6gte+21l0+8ns57jEDB0qniQeCC44oblAMQlEEZqMN0LF5XsPZ2HaszntNJSbnsGnziLTHoyPVZqA/qJaxvzkP9UY+iONGKuHmzvXxu4LoO+CDAy6++wS+33j7BN7T1yWLQiGhoIS2T64HtR7yOUEiXWgi2c460QEg+zvXoiGpD8xbNvTdhQg3FyLWw/nQeiBuRIyDrPMDqDEseQh7nhsLKYFBnuNRVXYNOETfbd6YB3Cv3vGbtutwaUYiSFjEPr5hIaJyMVCMSRIgYiRurA8FfM/Im98jU6W7sdcPdnbf93I24YqhvaLUB64Hl9g2twLG2HffSOgtbwvi5poKmLhAgQkQkiMUsGfeER2BeCdfdtHGTd9vD645I7js9L0/ZrXPKCjpF6sCeoy2jbhxfIf+0KEzJipjGSSPFdSwkEgPXGCHalJQNrhSCcz6aiBfhMz0SWoza4ht/IuBi2HZcRMqXXuz6lAXBmTtciEJ1gWDNtUfAdHaM6INZMOqk0LWLDSRmBZ0IHRSdaaHyahqrakpWxDZ3aq5jdRBLEcN6K5Q0+tqACMKR7JqCFU3HpiHVbQeLD/EMiu337Ox5leoCwSJcBqbSAje3OZbpOd8ZlpX55yBqT8mJmIY8euwvfeOvatqF/R6b9kzu2w5rFbq3xGHhQJRZx1BYuKJ1nX9l0AixMHUSCpBy8d1EN2nylAodC/F4+COWiwac7c8z7ua7KsX3eBaUb8jFAyrUBfeCcP8wa24lgbONeBhXPh1iWNlKCe6Lqar0j3uos8emzah1p7y7UZK/nS72E8NwzpIYMpx3hPTcY3gNm68kvg6vy1xkv7598vOlXBch2TxxOCjFeuYx03O0lCucBw7LUeg+i81/0oDTv1tO31OIlQdLXmgf2x56GeE8cLH7DAnrPCwvHUGxeeKwLFXVWfq8he6/WFsQO8hMxEKIhiHaKSYhRDkSsRCRIxELETkSsRCRIxELETkSsRCRIxELETkSsRCRIxELETkSsRCRIxELETkSsRCRIxELETkSsRCRIxELETkSsRCRIxELETkSsRCRIxELETkSsRCRIxELETkSsRCRIxELETkl+fL4ql6YLoSoSOYiJq2KBCtE3ZE7LUTkSMRCRE5Ju9Nhwi8yA1rSslat9iuYMTGd2CxMxmUJwM7rf4ZP+cl+YexN9sAw+ffpfXr57ImUj6yFxcpaLGGYEI1FyVtixE4GeZJqk3D61nHX+jSgYbpQPsffOcln2WM7+yFgMuyFqTLhienP5s9lgkT8c15c5MZeNzx/DQRsg26WRrRQrmE6lzDBtxCNTeYixiJefvUNFZa08EjHaVbOcu+GeYeXLlvuv5+bWFlLk8n+WNqZs+fmxQ7kLA4tJpZ0xcpVFfL/co7BgwZ4i29Y/t+58xf6T0DQCDtM8C1EY5O5iBEa1i9cQpF5K9jl8Ny3clomlhjWr//Mf+Ies086xy6Z+knATS5jg3UhPjt9WZl3lUMs276BwDsdcrBPZG6dwspEwBAm+BaisYl+YAtB4UYXsuhhjGtgiUPWfPChFyuirQ7c8NADoPNA2OnYXIjGJHoRY6mxooUsOsuYUVc2mMiIe4l/sd7mSiNsIbIkehEDLnKhQaeakLauBt9ZH+Jd+yT+xaV+Nom1seAa0BJZs0uI2GLScMQaGCBLD5KlMes68b4p+U6Aczw6dbrbGJzLIPb+5JNPvfuuAS1RCmQu4kKxLNNFoRirA3d55Igf+79HjLwpfx5GpquzlIjwsqEDvVUddeN4f9zoMb9w/fr2cYd26pDbawcMnnXq2MGXLz3gJkQWZPZjj1IHkfIDD6ztmX1Pya0th3ll0G++RSmwS7jTOwOLidOj2cwrM7ClAS1RKuz2IiYOxrKG7jvriJFxl9M/pdQvtESpsdu70+Y2p/+vmV+JhW60/S6bOJkYWgNaolRQTCxE5CgmFiJyJGIhIkciFiJyJGIhIkciFiJyJGIhIkciFiJyJGIhIkciFiJyJGIhIkciFiJyJGIhIkciFiJyJGIhIkciFiJyJGIhIkciFiJyJGIhIifz/MS82yrMI1wIXlxHbmEolJdYiN2ZkrDE6fSjaUgnStYFIURlMhcxmRcQaDoXkoG4yX3Uvl3FlKRCiHIyFzEvZyeZN+9zLgQJxMkxfGjHyilVhBAlEBOTlpSshnNeXFQp3q3JPk/NeK5CHmI6hHAfi6fP63+GW7N2XX7fFs2buWGXDqqUmNzeL21YvE7mh7vumewGXnhOpfidMhQqmxCNQUnExJbVkNg3BBcbV/u0U3rl1uwAgZN4DfGMvW54Ph8xSb/H3XyXF13IhHsf8p+2H9kd0pkQOR8Jy28dd63fBwFzHJkV27U5wGd+ILF4CMdThpOO7yEBi0woCRHT+BEBYjBRAS42lhUBpTE3O239Lhpwthdb2j0nCXmY0YGOYdPGTW7lu6v9d85H7qVzE4tt2R2wuBzHwBuc1ruXz8MUdhAcz3mUIVFkRUmIGBBBKCrETOJwhFMoZQoWEaubtn7sSybDdNLxdAI0XPTmLZp7Fxs4H2VIu9e48XQWmzZvcR2T63EMQjaKHSdEY1EyIkYEiMGmm3Cti2XiZztub0Nh5yuUKzmMt+kw6DgYLS8/pryjUYZEkSUlI2JADLi0uLa41sUy8bMOS9pQ2PlwnS1mDpcxo67MW3zccJsSM68BCy1EVpSUiLG6xLNPTH/Wf7cBr0Lg5qZdZsBCYikLudpVUex8aYjPidMXJW40XoMGtETWlJSIsYjEwGvWflitCE/tfaJ3t5k+CoX3wJRpPoZlgKo2WIcxafIU3xEYjEyzGBZz43pjkTWgJbKmpEQMuKYHtmtTcFopBDENv3ywF/uoG8fnY1hi25Ejflxr68j+HAcjRt6UPx/WNh2Xe8GXlRUdOReiMVF+4jqA5bcfkFT1jxtCNAYlZ4ljwH6UogEtUQpIxLUEK6xfaIlSQu50DTEXmsGss87oU+HXX0JkiUQsROTInRYiciRiISJHIhYiciRiISJHIhYiciRiISJHIhYiciRiISJHIhYiciRiISJHIhYiciRiISJHIhYiciRiISJHIhYiciRiISJHIhYiciTiFLyGZ/TYX1Z417QQpUxmIuYF7aQS5d3OxQRD9sFrRt4kQQlRBSVhiR+ZOt1bQCFE7clcxId26uA/H02ELISoPZmLmGyEvMM5nbxbCFEzmlyfkPu7Udm6dZtbsPA1n1Opf7/T3dK3lrs3//SO69G9m2vatKnfBxd7wcuLXfeju7h2bVv72Pi2Oya6zkd08uI3EP+4m+92bVp/ze/HceNu/Q+3f8v93JMznnMT75viP7kG5399yVtubLI/61gObN/WHwckE5/74iLX7cjD3aJXl7jb7743v19ZWZk74rCOfj/Drj31yT9UuIbdw1PJumlPzXStkrL8+/h73DMz/1ip/ELUh5KIiREyWQzJTfzs7Hm5tfVnwr0P+ZzH5BgeccVQf35eAE+StFvHXevX8yL4+x98vJIXYOlVLUfx0Esu8AnHEaVBp3Lr7RPcwAvP8ftwTrh7wv0VMivywvmZz811Y0Zf5W5J9iGhuhANRUmIGGjYZEKksTeUW03ScEt4xvlJQ7o+l/aUjgPIcNi8RXPvzoe0b9emQpYHzoPgSeGCpUekdAbhNcLOiETpBvv2S461awrRkJSMiMEEhZAbAqxwCInEOX9NXNn0sYCwN23clIj4M7d23UfewqZTsHJurrFm7brcmkTcNbymEHWhpERMgjLShZLAu9TnhrHoJDPHnbZcxizkSkbcISRDb95sr9w3IRqWkhIx4Jriovq540QkIS0RQ8YuqVlVyoI4ibUtbg4XJVwTjUXJiRiIK+GRx5/2nyHEl2lxE89uDAaSGoKFr76R+2sHrDOr6t3jsrJKsbQQjU1JitjcatzVUJzt2hzg2rdvU+EXXgyCNVQMHZJ26RmVZt1pvXt5b4AyMr/NiHW4H53MY9NmVBidFmJnUpIihi6dD83/mstAPIMHDfB/E3sSg/JLryGXXOBaNLCb/c8XnuNHny3WpaPAdbaRaMBlZuqJqSzbb8TIm1ynQzpoJFo0GspPLETklKwlFkLUDIlYiMiRiIWIHIlYiMiRiIWIHIlYiMiRiIWIHIlYiMiRiIWIHIlYiMiRiIWIHIlYiMiRiIWIHIlYiMiRiIWIHIlYiMiRiIWIHIlYiMiRiIWIHIlYiMiRiIWIHIk4Be+zHj32lyWfRkYII7NX1vJydVKALl+xyr+7OXyfs8GL4e+6Z7JPHVpo+84AEZP+lJfXN8Y1w3oIKVYnO4tJkx/2L8cvRqtW+7mrfzLEzZ2/0GeG5G9eoC+ypyREbA0k3Sh2dRFj7X0O5WOPcoMHnZ9bu+O+yXZx2dCBjf4ieqsDMlykc0qRCUMiLi0yd6ctywOZHHYnECrJzcl5HAoYyKU88qfDfBqbB6ZMy60tDRD1mFFXSsAlROYiJjEZPT6JyWjYuwukhcHSntr7xNyaiiASvIHdrV5E7WlyfULu70Zl69ZtbsHC17yr2L/f6W7pW8vdm396x/Xo3s01bdrU74Nbt+Dlxa770V1cu7atvft52x0TXecjOnnxGzTycTff7dq0/prfj+PG3fofbv+W+7knE/dv4n1T/CfX4PyvL3nLjU32Zx3Lge3b+uNg0+Ytbm7iLnY78nC36NUl7va7783vV1ZW5o44rKPfz7BrT33yDxWuYfeA+zntqZmuVVKWfx9/j3tm5h/99f4472XXM9mv65GH+f0K0bx5c19HLZo1cxs2bCx474Qld/z6vvK6O6abX1ddmYh/Fy1e4u+Hepi74BWfVN3cdquDDge1r3S/3M99//Pb/P5ci3JxT/f9z2OJdzHVX5Mk7JSH/a0On509r1L5IdyHpVA9i+KUxOg0jYF0pmvWrPMPuqHw8WbS2MgXTDI0zk+sR6K0W8dd69fjzuLWpq3dE9Of9Z+Wb5iBJjIg0uAMOhWSjBOzsw/nBGL9MCsiScexvGNGX+VuSfb56lf3dps2bnLt27XJ7VEYUqiSSnXNBx+6jocc7HMjp1OpIhbui/uEmpZpxcpVifDf9vvU1z3mvBOTuuYZWl0xSDbulrt92VnH0rXL4b5DpZM16FCIscdeN9zvw3OirsJ6FlVTMlNMxIGnndLLP8C0oOoKA0Y2OMX5aUTkNqaxmdXpdULPguJAYOGgDudB8DQ4GiENl84gvEbYGS1dttyvA/btlxxr16wLiKxTIuQ3l71TQYyUG7ecLJK1KRO5lc/s2yf3pf7w7KhjsIyWWHSubbAPndfKd1f77zxnyk/YYJ2ItQOrZ1E9JTVPbIJCyA2BWSejfeIyW6b/6kgfCwibRrj+08+8BcTC0uBCODfXWLN2XW5NIqQaXrMYlBu4VihGRIuou3Y+zIu1NmWyZOkNAdemgzT4zjWru0bYAYWE9Syqp6REbIM56QTfpQgWndFjXFfLTcxC3mSEFJJuzIVEVQgsGdcwt9uSrC98tXw+FzEjahNQbcrky1APz6AhwNVmipGczmF5CYNEzSkpEQNuIO7gI1On+0YZ0hIxZNzwzKpSFsRJDGcxX7ik51dDirnGacztJB4Gb/ESq7siWY+riZgRsLmx9SlTFuBh4Hbb+ES4MHZg9yWqpuREDBZHPfL40/4zhEafFjdu2cYqxFAXzNqFsM6sKkImrkzH0jXFXONiA3mIlI6M6bdw0ImQA15ZvMSLOXT761umxgYPgzogDBB1pyRFbG41rmEoTnMnvZXODXowONJQMXRI2qVntJR1p/XulYv59vECY8Q63I9O5rFpM6q0sICVYQSZ4xmhDeGext18l7fWaetpVvzh3z7tO5QwnqxvmRobys7zTI9Yc/+znp+f+yaqoyRFDDbCGYJ4Bg8a4P8mziN+4pdeQy65wLVoYDf7nxOBMdJrcRodBW6qjfoCAmM6hRjO9iO+63RIhxq5/ZwLV5IBHDuehZ9cDrt0UKVfchlmfW1AK6S+ZWpMKM/wywf7TsmeJwuiPrZ7+Zy3qJ7MfjsthGgYStYSCyFqhkQsRORIxEJEjkQsRORIxEJEjkQsRORIxEJEjkQsRORIxEJEjkQsRORIxEJEjkQsRORIxEJEjkQsRORIxEJEjkQsRORIxEJEjkQsRORIxEJEjkQsRORIxEJEjkQsRORIxEJETmbvnSYbATlzSagV0qrVfu7qnwzx2QxEcYrVHy+OD19w3xiQHYOsE2l4oT8vwU/nVCLDAy/IJwNGY5d1VyRzEZM/KMx0QEoTcgkVeviiHFK0+ATqxx5Voe5MHKRGuWzowEbL+ICIySec7nytnGTyCMtTWxGzP0nMyfShNlGZknOnfQLwFpWTfotyaND3P/i4T3ieTvNCAx/502E+h9UDU6bl1mYHAh173fBK5aGcZD2UFW4YSk7EljCM3LWiMuSEwtKe2vvE3JqKUH8ko6MTRPBZY0neLB2raHhKzp0GyxLIeh78bb+aWCFJdtqNNLfNCOPqQrEjVizMNpiO6cLtdn2EQVJw269YvJc+1+l9evkGnL5Pcykt62Pa5eQ85C/u17ePdyXhkoHnuQcffcKLIp0tMcTKzH6kD8Vyp8taqP6rK5M9FxK6Ud9Wz3PnLyzoTht2XnOf098hXW9ce8igAW7i5CmV4n57PjVpG1ZmUsmG95ZuA5BuR+lnXFU7yRREnAUbN27anjyA7RPvm5JbU07iem0fNeYX25+cPst/53PRq0v835AIYvuIf/23/Ha28Z31xqNTZ/jzFLoG+z07e17u23a/jeuxP6TPb+UZNvz6/DpIHwfpdXZ9jg3LQJlZZ/dl+7HwN3CtUTeO337Xf/4mv87KFtZHIcL7tvKHZYf0uWpSJn9/SZkeeGiq/274sqbqIiRdhvS108dzvUenTq9w31yXzxCOC+vCzhveK2XmvsL7SN8rcEx6He3Erpl+toWulRUl5U5jHSYlPS95d81dpKcLYyd6RbLjm7uNdcS9JHex8d2zv1NuhTdv8fFYmIib4/ucfIL/G4uA24mVNQvCdnptLEvo/tHDh70u+2zauCmfzZ9zrVi5yg25eED+XFgwUrFisQzukZSpnM/ui/0YCyDh9tJly/06YN9+SW9vlrAuUBbCE6w65zO4b+qNFLK1KRNJzM9MvIOGhGdJGcN6++7Zfau97+rahkH98xzsfJY21xLJ8+wIU9Ij+7QTzlmbdpIFmYuYxN1hHl3cO3LWhg+QRjb+zkn5/TiGnL6sx13E3So0kENGfzoE3EkeRJqwIYdwTgTKNYywIwDKyQAcnQhwLho460OsDAZZ8XH/aAAh6fMB39Pnqw3t27b2n1wrFCP1hqgtv3FtysS9cE8NCeXkmeKu1paq2oYRdhDAPXNvth/PjvvsmOxXiNq0kyxomvvMjHQMk4aYhgdD/IG4bZ1VHD0nyb+Jd3iIYTzMw+IY9r/19gl+/zCOocemA6DzSFPbpOWcqyYNfH3iGeAdWHmqIn2+UFShxUhjHgiNDPBSaIRYHo5DzIgaSwu1KZMvQy3rxj+r7du9lSwEz4OyEo8Sc6Zj8WJU1zZqSnXPriHbyc4gcxFXBQMN9IKIFPelGGxjyoJelcGacTffVWFAgk6CxQYueCh8xwJU12Aa2lVqmTQWGkxd5jxD15hwo1iZzcU3y8J+WF1z/RAzgrLr16dMNYFnSOcahjxp6FzuvO3nvnxJ/OrG3fofRQfKoKZtoybQDqoSfk3aSZZE97NLHvKKXCNNQwX72CexVliXNDQUem0eGIKn98ci4U7WF9ztQufiO+sN7x4nbjcNsC6Ya/zs7Hm5NRWhfh6ZOt2PTIcC6HVCT//5yuIlvv7C8KC+ZaoKxIZ1Pa13rxoJgDIzroDlrq1FraptVEV17aAh28nOoKRFjIWAsHE9mjTQcEph1vPzK8S7WCHiFI7loT427Znclh2xoLmExDi4mRPvm+L3NTgf560Nhc7F9SivTWsAjRSB0bBp4Ab7PjZthv+sCqwOUzMcj+sYQrnxQrDW4SAcmBV/+LdPe6sbxnf1LVMxKB+eT3U/BeUZhfXvn3cwvlCok6lJ26gplA3PhJAsbEvWthqynewMSnKeOMRcYIMGgTtIL417g0Wi8Rnh3B4VjmtW1TwiWGxlhHG1nYORybAh2vpwztbuyeY1KQsu6pMzZlW6z/R9QdjYbZ64mAuXvhak5zXT2DWLzW9WVybrNNL1l54/NYqNd9D4w3niqurfCK9h5a+ubVBvxcrM+nA/SN9H2oWuSTmzIDMR7y6Y2IhJCwlHiPoSXUwcGxYT20ixEA2NRNxA4F7jboXxI+uIo4i3QldciIZE7nQDUShGhWLxpxANhUQsROTInRYiciRiISJHIhYiciRiISJHIhYiciRiISJHIhYiciRiISJHIhYiciRiISJHIhYiciRiISJHIhYiciRiISJHIhYiciRiISJHIhYiciRiISInk9fz2HuHw5eqp7F3UxV6P7AQYgcl8Y4tXtpdLEm1RCxE1ZS8O82b+9OpToUQO1BMLETkROdOsy85ivr17eMm3vtQPq4mDw+Jr8J3PxdKR5nOz1Qq+XSEqCtRWmJESpKyMaOv8jltSdx1/4OPu3G33O1TaLJu7HXDfeLsB6ZMyx21I2sgSdDYh4VMgYgacQsRI1GKmOx/ZLk3C0vOXujUsUM+XQqWFbGSr9YEOvO5uT5FJQm6DcuWP3f+Qv8pRGxEKWKEGGad9/mGWzT3Gd2LgZARdDrZdfNme/l8vWs++DC3Roi42G0GtoirST5OPtvLr74hv4wYeVOl/ElCxMRuI2Kz1gyAWTwcLoWSYQsRA7uNiM1tJpO8ELsSu4+IkziYeHjhK2/4aaqQx6Y9o9FpES27jYiBkesRVwz1o9RhXIyV1jyxiBXlJxYicnYrSyzErohELETkSMRCRI5ELETkSMRCRI5ELETkSMRCRI5ELETkSMRCRI5ELETkSMRCRI5ELETkSMRCRI5ELETkSMRCRI5ELETkSMRCRI5ELETkSMRCRI5ELETkSMRCRM4uI2LeGz167C8rvVNaiF2dTERMitFrRt5UpeBeWfymfyc0n0KI4mQiYjIaktmQZOGbcknC05BuhQTgHQ85OLdGCFGITERMSpWunQ9za9asc2vXfZRbuwNLQ0oCcGVmEKJqMouJu3Y53H++ufRt/xmyMhHwJ5986noec1RujRCiGJmmcZk0+WGfN/iyoQMrJP4utJ74+Ynps/zfgKt99U+G5C011vu2X010Jx3fw53Z95RK3w3c97sn3O9TnVo6U64HdBrkL4YWyXWHXTrI78d56FSg57FHVUqDSox/1z2T3cZcaHBopw6V7kmInUWmo9OIJu1SmyuNu40IEN34Oye5OS8ucmOvG57PJ4yrPe7mu7yAGgKyJRKHc+5bx13rY/aJiaBvu2OCG3LxAL+eZGx4DuGAHANvt94+wQ288Jz8sUBHUSzeF6IhyVTEDFqR+Dt0qXGlyehv7vbSZcvdJ+s/q2B14aIBZ3uhkeGwIcCyn9v/DP83nQdpULnuSSf0dB2/fpBfzyflsgE5lpmz53rrTMZF4FjOQ+dE2YXY2WQqYkSJRQ1HqbGGiJMRbPteaIALsWCtsdpY7/qSvkbLlvt6l7p9uza5NZXBg8DNPu2UXrk15eCC0zmtWbsut0aInUemIobQpS7kShMblyrrE0uNtcadDvMdj7pxfD6GFmJnk7mIQ5c67UojZKxaXSBxeKvEmu5MsNZcg1jZYvVwCQfUhNhZZC7i0KWeM39hBVca2rdtXdBlxkpzTCFXO2TNBx/m/ioHi4/lbwh8B1NWVnCaTIjGInMRAy718hWr3JJEDAwoYYGNU3uf6K0d0zyhkB+YMs27sjYYlcZiZkad7aebCP/RqdPzU0H1hc6DKSymvsKfh3Kdx6bNyMf5QuxMSkLEuNSMDhf6mSViHH75YG9xiTUt7iRWHjnix1VaYdxZRo6Z++WY0WN+4fr17ePncRsKrjH0kgvy12AZMfKmpLwdKnRGQuwsMv2xhxCi/pSEJRZC1B2JWIjIkYiFiByJWIjIkYiFiByJWIjIkYiFiByJWIjIkYiFiByJWIjIkYiFiByJWIjIkYiFiByJWIjIkYiFiByJWIjIkYiFiByJWIjIkYiFiByJWIjIkYiFiByJuAikO7WUp0KUMpmImHSk14y8qUKKUIMXrpPKdPTYX1bK+gAIq9i2NHad8MXuQuxqZCJi0rSQriXMhmhs2rzFZ3YgJ1M6mRr7sq661C2NCR0FL6VvqDzJQtSWTERsKVa8WBPRhpBUjYyCpFpJ5ziyPErkZ6oJ5BO+Zdy1+dzBQuyKZBYTk/cXsSLaEPIRH5hsY0knQyOVKFjWRCFEhmlciGlJkoZrPHjQ+X4d7vLdE+73VhrmvLjIXf2TIXnXmXgYd/qyoQPzeY5YR9I0g7xIZnlxce+6Z7IbeOE5FawxsThJ0IzT+/TymRfJcmhlsUEtEohzDkvCdtYZfXz+JSsrieBCbLsQjUVmlhhhImBEaXGxZd7H0rIQF5ultnjYZ+FPBMx3BsBYd2viMpMP2BKbVTWQhTjpHMZeN9wfw7EIOC1GoHMgi+KY0Vflz28ZEC3RG7mJwxzFErBobDITMZDSlBgX8YKPgcvKvFC9WFs0d2vWlucStniYY2DpsuX+O6lNzSpjbcmCOHP23HzHEIJlXrFylRty8QDfiQDHDh40wGdkTMM6ttn5u3Q+1GdUxOUXolTIVMRk2geLdYmBbeTZLLWNYLMPorbUpwgJa83gVQiDXoUGzCDsJEKaN9vLW9M06VFwxMyxofcgRNZkKmKbakKQxMi4tWZpgb9NkOyD0BCcuda4u5YT2JYw1k1DJ2HnEGJXIVMRY9kYxEK8ryxe4mNgs87A36xjG/uwL8eYRcR1Jg5NL2NGXVnBggqxK5OpiIGpJoS6JHF1scpYZ8MsNdvc9u0VppZwmxF2TX65ZaRjcMPibSFiJHMRE+MS6yJUs7SGWWov4lQs2+uEnv5z0uQpFeJTRo6LjU4zMEWnMPG+KXnxcywj0DaFVFt8mZKypX+YIkRjkbmIbQALsMppbF16kIm/R474sf97xMib8jExI9OItRB0CswxExePunG835+fTPbr28ePOtcFynHS8T18LM75Cv0eXIidSWY/9iglsMb2IxPN84rYyNwSlwIWExfyBIQodXYrERMH84utMIZmHTEyg2b6RwkRI7uVO21us37vLHYlFBMLETmKiYWIHIlYiMiRiIWIHIlYiMiRiIWIHIlYiMiRiIWIHIlYiMiRiIWIHIlYiMiRiIWIHIlYiMiRiIWIHIlYiMiRiIWIHIlYiMiRiIWIHIlYiMiRiIvAC/UsR7EQpUwm79iy5N8k8E6/oM5eZkcitTDBuIGwSN9SaFuaYknGa4IJ2JKO1xXepkkydfIuGy2aN3PDLh1UKaPjzqTYSwKBF+eHidsN6oDEdYW2idIhE0tsOZYsbWkIGRB9JsSNm3wDCmFf1qWzQWQJHQVZJPhMQzYIMk2QISJM+EancuvtEzKx9IWS0JGKhiwa9c1ewfEkfk8/U7FzyUTElmOpUB7hlYmVxWqRGymd3yj/kve2rXNrqgZLd8u4azN5nzT5oEjtMvSSCyp5G5RnxBVD/f2VQtoXvA3KSXnDPFasH375YFnhEiezmJhsC4gV0YaQh/jAZBsL+YRDLBl5mB2xFMESkRMKq1esA6GDIZyY8+Ii73JnDfmrcKupfxEXmb132mJFXGOLOy1uw0oDDTyMfQvFaKwj2biBRTHhFIuJsX5hMvLT+/TycTZupZXFXF2Exjksa6K9aN7KWuhF9HQyNYnFw/KVJ1qvHH8Wuoeq7tnq9bz+Z/hzsh+dyUUDzvblDe8xDfUS1nm6vgvdc3i/YWbJMO5P13d6TIB7nHjvQ25Ich8zn5ubv7dWrfYrOPaRPl96v6rqZ1ekyfUJub8bFRoFVphG0qN7N9e0aVO3+v0P3Jx5C13fb5/sWh+wv5ub/P31gw907RL3mQb0/NyXfCM87u+6++93/Pq+xB3f7EZec5nrf9bp7sD2bd2EpDHwyTE06AUvL3bdj+7ivwMP+LUly9yonw5z5/bv60X6zLMv+IaJd9DjmG5+v0WLl/iGsHbdh+5nV/0of/4HH3nCfx58UDvXK4l1u3U9wr35p7fd5UmjvOiCs90Rh3VM7us999obf3K9v3W8L29xytyCha+5Vsk+nQ/v5O+d84XHzJ2/yK1JwggyN0J190x4MjcR4oqVq9wpf3+8G3zx+f6etm7d5q9Fvds9ptmwYaNblNwz9UUZqAOudVzP7v546wS4dr9EvJR1w4YvvED6nv4tV1ZW5rZ9uS2/nX39M1i42IuM8rJ+9ftrE09lns8XTXnYZ+78hW72CwuSTuFUX2aey+vJc6IM1j6A58czvXLYD3x9c75Pk+Mts2Z19bMrkukUUzrpt4+Bc3mIWchbvGZtefJvi4c5BpYuW+6/n5tYHLNcNCasDq4sIk9Dj0/jHnLxgOT85b02xw4eNMD35mlYxzY7/850OS1PczgOwD0w+MfAGOWtzT3TITWk9bEBR6t/wJL2OfmE3LfCUG4sv5UXEChJ4+nAQ7DqVmb2P613rwrtg3id+kmP7H/37O/Uun52JTIVccuW5RbHYl1iYBt5ZuFvG8FmHxo5jR0QEm5c+DCBQa9CA2YQdhIhzZvt5XMWp0mPgtMwyq1Lcv4GbBAIjusg1jBGpvEybmBjALW555oO/tUUq6P7H3zcd4a1BQFaDmlG5imvPXegbu0+jXT74P6Z1WB2oxB1aRO7ApmK2KaaqHwaLnFp2NPzt1U++9CIaExe1ImQcHetYdgSxkpp6CTsHDuTdOMrhrdEiUWy/WmATK3ZYB/xId4A9VTbe65Lmla8nmIiQWSMVFNGRMh1azKyjuCvGXmTe2TqdDf2uuF+SouReeLi2mD37z20AsfWtU3sCmQqYt/7dj7Mi/cV4q+kAVuDBv5mHdvYh305hoWHiZuUnvNkGTPqygoWtLEJO6eqwDMwkUKhTg2XsjHuGRHg9VgdFwPXmOvZlBQxajE456OJeBF+fctn91+MUm8TO5NMRQxYDIS6JGnQaStgjZptWKzQ3cJFopGb61kT0jG4YfF2Q0GDQnxYhXDeNQQLhaU1kYIdZ50aWPgAdbnnmvLAlGne6+l1Qs/cmqoh1iSGxfoh1tpA5xWOZNeU6u5/Z9ZPKZO5iG1AB6GmrQB/s86LOBXLWmObNHlKhUaEaIoJh4EpOgWSituDNmtRl0YFvkxJ2cIBKbBGzsho2u2kfLikDPCkB59MtA//9un8gJZRl3uuDuph9Nhf+sZfaDrHYL/Hpj2T+7bDcnP/9szokMNOkvVsD4VlnVddOLX3iT4cYgotFCrl4vvOqJ8YKIn8xDavV2g+j8pHCLhJ6flNHlR63pLRY5vXpMGk51jTxxCbMT/55IxZvsGl54nT12Q91ieczw3nLRFu+AstGlf6t9Ppec00XKPQKCxUd892vfP6n1GhLgsdZxSbRw3vlXGJ9H2kn0l4DZsLxpsKr0tZmS5jXtieC8/J5onD+y30/MDaixGWo7r62RVRkvEEe/BY/fRPJIUodTJ3p0sBi4nrMqIrRNbsViLG1cQVw/IarCNGZtCskEspRKmzW7nTxeLCdBwrREwoJhYichQTCxE5ErEQkSMRCxE5ErEQkSMRCxE5ErEQkSMRCxE5ErEQkSMRCxE5ErEQkSMRCxE5ErEQkSMRCxE5ErEQkSMRCxE5ErEQkSMRCxE5EnEReBcXixClTiav57H3CfPy9PS7rew9WGQjKPRuZoRV3YvOjWLvLa4JJuD0e6drS6H3Tqfz8+5srB6qekG+vWeM+06/V1uUNplYYkvPYhkPQ3hJuU+itnGTb0wh7Mu6dLbCLEEgo8f8wn+m4aXyo24c7zM5hHmB6FTIANFYlp7O4pZx1+avj2B5gb0lOGPRiwLjJRMR08PzovZC6SbJCIjVwmqkU6Pk3w/dtmZpO63xZvEqWjJXkBWC7AppgVAeMgNyfzXJLNiY4HmQ/VBWOB4yi4l5UTtitTSeBhkBD0y2sZCKNMRShYaJ1UoRPAaSWpNepFgHQgdDOBHmIxaiLjS5PiH3d6PSvHlzt4h0pkmD73FMN7+Ov5+f+5L7xlFHJiJv7V5bssxnMjSr8GRitfbcs6k79eQTXdOmTf06XFJe/s42lgPbt3XtcpYaF3fczXe7Nq2/ll8HWL/b7743f8zmLVvcU88859780zv5slA2wO3kHFOf/IPft6yszB1xWEdf1jt+fZ974ulZ/u858xfmt7do0dzNnDXXnXH6yRWum2bPPfd0c+ctdF8/+EB/7LPPz3M9unfL3xsUuoeq7pkOYdyt/+H2b7mf38Z+eDB2X/D2O++6Ve+tdSed0LOSxeXcYTmoq2lPzXStkvP9+/h78vXANcldRR3c/+BUv27pW8srld/K8+jj0/0+cxe8UuGZivqTmSUmpiW2JcZFBEBjwzpjaVnChNvsw76WhY/v4++c5Nfdmov3cF1JvlZVBjwaKdbP4kGOZaCsUKIxknaRMXHM6Kvy58dF5vyUAbcTt5hMfXxabGkeQ5hruRD+XhLBk9y7WNpVXG72IVtibe75ienP+nOyT30H56gbEs5ZPeBh3P/g427cLXf7VKysoz4Jj0iRapR3QHdVGBPgmaezGor6kekUU7rh+hg4l8I0bOBg8TDHwNJly/33c/ufke/VcV1pYLiy1jGE0KhWrFzlhlw8wHciwLGDBw3wFjcN69hm5yc1Khn2qkseXhcsxWs4DsA9MPhnKU5rc8+EKw01FsBoenhNwgDo1LFD/hqUj3KGaUxJYcoAJilJDc4DcxPPRTQMmYrYLJVZLmJgG3k2S20j2OxjFgkQEtY6PU3DoFehATMIO4mQ5s328tY0TXoUnEbMsaH30BAgOBNBGCOHngnU5p5rOvhXE9LJ362Dreoa3AOCDpOog9V1erxD1J1MRWxTTTROe+hmaYG/rXGyDw+fRuBFnQgJd/fyq2+osFie4ELQcOwcO5N051QM7sFt357fPx1CYMnwBqin2t5z1hkefUeX3AuufljWESNvKhi6iLqTqYjpoZlqQryvMMiVPPQwjuRv1rGNfdiXY8wi4kZarBUuY0ZdWcGCNjZh51QVeAYmUijUqZklK/V7TmPWmpi9UHnrG6eLHWQqYsBiINQlSYNOu23WqNmGxTK3EnDlaOTmetaEdAxuWLzdUCA4xIfVLDbIRnyOpQ3dTTvOOjWw8AHqcs9ZYW5zdR2ZqD+Zi9gGdBCqWVqDv1nnRZyKZXud0NN/Tpo8pUJ8imiKCYeBKToFpl1MCBzLCHRVP0msCl+mpGzhgBQw4MMvo3An0z/ooHz8YosBovTgk4n24d8+nR/QMupyz1kRdmTp+39s2jNRdESxkLmIaaQMIEGhOM7WpQeZ+HvkiB/7v4mzLOZilBaxFoKGxW+CsRD8HJL9+clkv759/KhzXaAciI24lPOFDZbpJqZeGKyy8rE8knQarC/0U0erD0aEQ88D6nLPWUIHxdQbHkd4/1jp8FmK+qH8xAlYNf7pAquv3xCL2MjcEpcCxMRr167LfERXiLqwW4mYOIxfbIXxpF+XxMhdjjy8UnwqRAzsVu60uc38aiuEmFhutIgVxcRCRI1z/z+TI/legrRF6QAAAABJRU5ErkJggg==;" vertex="1" parent="WIyWlLk6GJQsqaUBKTNV-1">
          <mxGeometry x="820" y="640" width="149.2" height="397.45" as="geometry" />
        </mxCell>
        <mxCell id="oOF_SWQoisUEfiWRyzWI-45" value="The parameters consist of the quantity and the units of that quantity" style="text;html=1;strokeColor=default;fillColor=none;align=center;verticalAlign=middle;whiteSpace=wrap;rounded=0;" vertex="1" parent="WIyWlLk6GJQsqaUBKTNV-1">
          <mxGeometry x="740" y="130" width="135" height="100" as="geometry" />
        </mxCell>
        <mxCell id="oOF_SWQoisUEfiWRyzWI-46" value="Emission factor can consist of multiple data combinations.&amp;nbsp;&lt;br&gt;&lt;ul&gt;&lt;li&gt;Emission factor ID&lt;/li&gt;&lt;li&gt;Fuel type,&amp;nbsp;&amp;nbsp;&lt;font color=&quot;#000000&quot;&gt;Life Cycle Assessment (LCA)&amp;nbsp;activity, region&lt;/font&gt;&lt;/li&gt;&lt;li&gt;&lt;font color=&quot;#000000&quot;&gt;Custom Emission factor with value, activity and conversion units&lt;/font&gt;&lt;/li&gt;&lt;/ul&gt;" style="text;html=1;strokeColor=default;fillColor=none;align=left;verticalAlign=middle;whiteSpace=wrap;rounded=0;" vertex="1" parent="WIyWlLk6GJQsqaUBKTNV-1">
          <mxGeometry x="740" y="250" width="240" height="150" as="geometry" />
        </mxCell>
        <mxCell id="oOF_SWQoisUEfiWRyzWI-52" style="edgeStyle=orthogonalEdgeStyle;rounded=0;orthogonalLoop=1;jettySize=auto;html=1;entryX=0.5;entryY=1;entryDx=0;entryDy=0;" edge="1" parent="WIyWlLk6GJQsqaUBKTNV-1" source="oOF_SWQoisUEfiWRyzWI-47" target="oOF_SWQoisUEfiWRyzWI-20">
          <mxGeometry relative="1" as="geometry" />
        </mxCell>
        <mxCell id="oOF_SWQoisUEfiWRyzWI-57" value="No" style="edgeLabel;html=1;align=center;verticalAlign=middle;resizable=0;points=[];" vertex="1" connectable="0" parent="oOF_SWQoisUEfiWRyzWI-52">
          <mxGeometry x="-0.936" y="2" relative="1" as="geometry">
            <mxPoint y="-8" as="offset" />
          </mxGeometry>
        </mxCell>
        <mxCell id="oOF_SWQoisUEfiWRyzWI-55" style="edgeStyle=orthogonalEdgeStyle;rounded=0;orthogonalLoop=1;jettySize=auto;html=1;entryX=0.5;entryY=0;entryDx=0;entryDy=0;" edge="1" parent="WIyWlLk6GJQsqaUBKTNV-1" source="oOF_SWQoisUEfiWRyzWI-47" target="oOF_SWQoisUEfiWRyzWI-54">
          <mxGeometry relative="1" as="geometry" />
        </mxCell>
        <mxCell id="oOF_SWQoisUEfiWRyzWI-56" value="Yes" style="edgeLabel;html=1;align=center;verticalAlign=middle;resizable=0;points=[];" vertex="1" connectable="0" parent="oOF_SWQoisUEfiWRyzWI-55">
          <mxGeometry x="-0.2" y="1" relative="1" as="geometry">
            <mxPoint x="18" as="offset" />
          </mxGeometry>
        </mxCell>
        <mxCell id="oOF_SWQoisUEfiWRyzWI-47" value="Successful?" style="rhombus;whiteSpace=wrap;html=1;shadow=0;fontFamily=Helvetica;fontSize=12;align=center;strokeWidth=1;spacing=6;spacingTop=-4;" vertex="1" parent="WIyWlLk6GJQsqaUBKTNV-1">
          <mxGeometry x="246" y="1170" width="150" height="100" as="geometry" />
        </mxCell>
        <mxCell id="oOF_SWQoisUEfiWRyzWI-54" value="Return emission calculation result" style="rounded=1;whiteSpace=wrap;html=1;fontSize=12;glass=0;strokeWidth=1;shadow=0;" vertex="1" parent="WIyWlLk6GJQsqaUBKTNV-1">
          <mxGeometry x="256" y="1310" width="130" height="50" as="geometry" />
        </mxCell>
        <mxCell id="oOF_SWQoisUEfiWRyzWI-69" value="&lt;font style=&quot;font-size: 16px;&quot;&gt;Emission calculation flow diagram&lt;/font&gt;" style="text;html=1;strokeColor=none;fillColor=none;align=center;verticalAlign=middle;whiteSpace=wrap;rounded=0;" vertex="1" parent="WIyWlLk6GJQsqaUBKTNV-1">
          <mxGeometry x="246" y="30" width="150" height="30" as="geometry" />
        </mxCell>
      </root>
    </mxGraphModel>
  </diagram>
</mxfile>
